<?xml version="1.0" encoding="UTF-8" standalone="no"?>
<!-- Created with Inkscape (http://www.inkscape.org/) -->

<svg
   version="1.1"
   id="svg1"
   width="5764.5859"
   height="1966.08"
   viewBox="0 0 5764.5861 1966.08"
   sodipodi:docname="QuaCCAToo_logo.svg"
   inkscape:version="1.4.2 (ebf0e940d0, 2025-05-08)"
   inkscape:export-filename="QuaCCAToo_v3.pdf"
   inkscape:export-xdpi="600"
   inkscape:export-ydpi="600"
   xml:space="preserve"
   xmlns:inkscape="http://www.inkscape.org/namespaces/inkscape"
   xmlns:sodipodi="http://sodipodi.sourceforge.net/DTD/sodipodi-0.dtd"
   xmlns="http://www.w3.org/2000/svg"
   xmlns:svg="http://www.w3.org/2000/svg"><defs
     id="defs1" /><sodipodi:namedview
     id="namedview1"
     pagecolor="#ffffff"
     bordercolor="#000000"
     borderopacity="0.25"
     inkscape:showpageshadow="2"
     inkscape:pageopacity="0.0"
     inkscape:pagecheckerboard="0"
     inkscape:deskcolor="#d1d1d1"
     showgrid="false"
     inkscape:zoom="0.15087448"
     inkscape:cx="2681.0366"
     inkscape:cy="639.60452"
     inkscape:window-width="2560"
     inkscape:window-height="1382"
     inkscape:window-x="0"
     inkscape:window-y="0"
     inkscape:window-maximized="1"
     inkscape:current-layer="g1" /><g
     inkscape:groupmode="layer"
     inkscape:label="Image"
     id="g1"
     transform="translate(3798.506)"><text
       xml:space="preserve"
       style="font-size:400px;font-family:Serif;-inkscape-font-specification:Serif;text-align:center;text-anchor:middle;fill:#004f84;fill-opacity:1;stroke:#000000;stroke-width:2;stroke-dasharray:4, 8"
       x="-1992.5043"
       y="904.69507"
       id="text1"><tspan
         sodipodi:role="line"
         x="-1992.5043"
         y="904.69507"
         style="font-size:666.667px;fill:#004f84;fill-opacity:1;stroke:none"
         id="tspan4">QuaCCAToo</tspan><tspan
         sodipodi:role="line"
         x="-1992.5043"
         y="1495.3951"
         id="tspan3"
         style="font-size:400px;fill:#004f84;fill-opacity:1;stroke:none" /></text><text
       xml:space="preserve"
       style="font-size:266.667px;font-family:Serif;-inkscape-font-specification:Serif;text-align:end;text-anchor:end;fill:#6cabe9;fill-opacity:1;stroke:none;stroke-width:2;stroke-dasharray:4, 8"
       x="-230.64702"
       y="1315.1254"
       id="text5"><tspan
         sodipodi:role="line"
         id="tspan5"
         x="-230.64697"
         y="1315.1254"
         style="font-size:266.667px;text-align:end;text-anchor:end;fill:#6cabe9;fill-opacity:1">Quantum Color Centers</tspan><tspan
         sodipodi:role="line"
         x="-230.64694"
         y="1648.4591"
         id="tspan6"
         style="font-size:266.667px;text-align:end;text-anchor:end;fill:#6cabe9;fill-opacity:1">Analysis Toolbox</tspan></text><path
       style="fill:#004f84;fill-opacity:1"
       d="m 1598.6752,1895.0677 c 0.2981,-0.924 6.5463,-15.072 13.8849,-31.44 l 13.3429,-29.76 h 54.976 54.9761 l 14.7237,31.0944 c 8.098,17.102 14.7237,31.25 14.7237,31.44 0,0.1901 -37.6132,0.3456 -83.5847,0.3456 -79.171,0 -83.5561,-0.089 -83.0426,-1.68 z m -45.0527,-60.7728 c -18.48,-32.147 -37.7506,-65.4822 -42.8235,-74.0782 l -9.2235,-15.629 10.1835,-0.6094 c 14.0981,-0.8436 54.7663,-0.3197 55.7608,0.7183 1.8307,1.9108 48.0227,82.777 48.0227,84.0711 0,1.126 -27.1911,62.8557 -28.0725,63.7306 -0.1361,0.1351 -15.3675,-26.0564 -33.8475,-58.2034 z m 218.1589,49.8012 c -1.3004,-2.8097 -7.6389,-16.2422 -14.0856,-29.8502 -6.4466,-13.6079 -11.5844,-25.5333 -11.4173,-26.5008 0.1672,-0.9674 10.888,-20.1659 23.824,-42.6632 l 23.52,-40.9042 32.4404,-0.035 32.4405,-0.035 -2.6348,4.56 c -1.4491,2.508 -6.5758,11.256 -11.3926,19.44 -4.8169,8.184 -22.0782,37.992 -38.3586,66.24 -16.2804,28.248 -30.1341,52.1467 -30.7861,53.1084 -1.0661,1.5724 -1.4235,1.2341 -3.5499,-3.36 z m -800.3989,-21.9853 c -15.46048,-0.7165 -24.17438,-1.3077 -56.08148,-3.8049 -27.1534,-2.1251 -84.0656,-10.1797 -114.3185,-16.1791 -31.3175,-6.2104 -76.2999,-16.8521 -96.48,-22.8246 -43.3754,-12.8374 -113.2769,-37.5049 -151.6703,-53.5227 -15.0684,-6.2867 -79.0423,-40.3196 -91.6897,-48.7773 -10.4368,-6.9794 -34.7009,-23.9948 -37.6174,-26.3796 l -2.0974,-1.7149 8.8174,-9.6523 c 4.8496,-5.3088 12.2734,-13.4845 16.4974,-18.1682 4.224,-4.6837 11.136,-11.8367 15.36,-15.8955 14.3366,-13.776 77.7016,-71.2372 89.28,-80.9616 47.0282,-39.4978 92.2739,-95.0916 139.5633,-171.4824 8.0029,-12.9279 13.7814,-24.0062 33.299,-63.84 13.0989,-26.7335 19.3263,-36.9185 43.7335,-71.5259 5.0294,-7.1312 11.0815,-15.5552 13.4492,-18.72 27.723,-37.0563 26.1472,-35.0093 44.995,-58.448 16.0194,-19.9215 32.5282,-38.8765 51.9734,-59.6745 17.7259,-18.9591 25.1564,-26.0135 36.8569,-34.9915 3.7847,-2.904 9.6461,-7.4126 13.0254,-10.0192 19.5035,-15.0432 62.06758,-44.0456 81.50428,-55.5355 6.2727,-3.7081 18.7108,-9.1203 39.84,-17.3357 33.4185,-12.99369 83.9737,-30.71354 90.4523,-31.70398 6.8611,-1.04893 24.4586,-8.31842 30.0277,-12.40438 8.8891,-6.52187 19.4244,-17.97081 23.2212,-25.235 4.6961,-8.98499 6.4429,-15.41043 7.1587,-26.33338 0.7325,-11.17654 -0.3189,-14.07219 -9.1447,-25.18499 -4.7762,-6.01397 -9.5367,-10.16459 -24.9487,-21.75283 -10.4755,-7.87641 -21.1614,-15.41982 -23.7464,-16.76313 -2.5851,-1.34331 -13.1241,-7.36297 -23.4201,-13.37703 -16.4133,-9.58723 -20.8633,-12.75715 -36.1131,-25.72479 -17.3612,-14.76301 -17.3942,-14.79854 -17.9568,-19.36703 -0.606,-4.92085 3.5402,-30.92725 8.9892,-56.38312 2.7143,-12.68019 3.0272,-15.978 3.5132,-37.02624 1.2693,-54.97935 -4.8165,-155.92212 -12.1215,-201.05375 -3.3427,-20.65193 -6.6615,-29.58009 -26.5857,-71.52 -8.8977,-18.72948 -13.2447,-27.4799 -21.1839,-42.6427 -3.3692,-6.43478 -2.5044,-16.30122 2.0263,-23.1173 3.3066,-4.97456 24.5154,-17.27781 39.1839,-22.73057 18.5423,-6.89281 73.3925,-23.89835 93.8484,-29.09639 37.2466,-9.46473 72.201,-13.2612 105.12,-11.4173 24.1263,1.35139 45.3578,4.63406 65.28,10.09317 12.2606,3.35969 11.1208,2.90105 77.7306,31.27696 54.3529,23.15442 62.2936,26.82016 78.72,36.34036 22.9818,13.3194 94.4123,62.84108 118.3982,82.0836 16.0254,12.85623 20.0396,16.76158 45.6918,44.45233 15.4676,16.69681 29.4148,31.86984 30.9938,33.71784 10.9063,12.76454 27.5902,35.30617 39.4346,53.28 7.6546,11.616 20.1027,30.408 27.6624,41.76 19.9712,29.9897 38.1597,63.75382 50.1633,93.11999 5.2876,12.936 10.2759,26.37653 11.0851,29.86784 1.3561,5.85111 10.9148,35.22534 17.7714,54.61216 1.5873,4.488 3.8148,12.48 4.9501,17.76 1.1353,5.28 3.3021,13.488 4.8152,18.24 1.5131,4.752 3.4337,12.89362 4.268,18.09249 4.2124,26.24822 6.6648,34.89571 22.7749,80.30751 20.9993,59.19396 25.6911,72.94476 29.5992,86.74886 3.5533,12.5508 3.8024,14.3004 4.3733,30.72 0.3374,9.7022 0.1119,26.7623 -0.5093,38.5312 -0.986,18.6828 -1.5435,23.0033 -4.8306,37.44 -2.0437,8.976 -4.0077,17.832 -4.3643,19.68 -0.3566,1.848 -2.7561,11.136 -5.3321,20.64 -2.5761,9.504 -6.8696,25.92 -9.5412,36.48 -6.7058,26.5058 -9.4885,34.4729 -19.9501,57.1199 -5.0001,10.824 -11.0201,24.432 -13.3778,30.24 -7.2491,17.8575 -39.8614,82.4304 -54.5449,108 -21.6678,37.7316 -60.0112,89.1177 -91.5119,122.64 l -11.0508,11.76 h -51.0666 -51.0666 l -12.2873,21.36 c -6.7581,11.748 -14.7259,25.248 -17.7063,30 -2.9804,4.752 -24.1824,41.2422 -47.1155,81.0893 -32.8289,57.0413 -42.6623,73.3911 -46.2371,76.8775 -5.6473,5.5078 -18.2953,13.0199 -44.8995,26.6675 -24.1252,12.3758 -44.1655,21.2406 -73.44,32.4858 -41.1414,15.8037 -66.425,24.6315 -83.28,29.0774 -4.092,1.0794 -10.68,2.8265 -14.64,3.8825 -3.96,1.056 -10.332,2.7534 -14.16,3.7721 -12.7521,3.3936 -50.3832,10.6237 -70.0733,13.4634 -23.4203,3.3777 -53.5773,6.431 -81.3667,8.2383 -14.2697,0.928 -80.4769,1.1777 -97.92,0.3693 z m 632.2519,-77.2851 c -21.5925,-37.3755 -27.4519,-47.9534 -27.4519,-49.5585 0,-1.2668 43.3434,-76.0337 44.5364,-76.8248 0.585,-0.388 27.4156,-0.693 59.6236,-0.6779 l 58.56,0.027 22.9207,39.8711 c 19.9743,34.7459 22.7896,40.1394 21.901,41.9579 -0.5608,1.1477 -11.5295,20.2308 -24.3749,42.4068 l -23.3553,40.32 -55.198,0.2477 -55.1981,0.2477 z m 189.7064,-54.398 c -1.0331,-1.716 -11.0797,-19.104 -22.3259,-38.64 -11.2461,-19.536 -21.2361,-36.5503 -22.2,-37.8095 -0.9638,-1.2592 -1.7524,-2.8957 -1.7524,-3.6366 0,-2.5917 25.2798,-65.658 26.0187,-64.9095 0.8668,0.8781 85.3413,147.0771 85.3413,147.6992 0,0.229 -14.2208,0.4164 -31.6017,0.4164 h -31.6017 z m -290.1183,1.7251 c 0,-0.2539 7.6947,-13.7599 17.0994,-30.0133 9.4047,-16.2535 28.736,-49.7184 42.9584,-74.3664 15.6355,-27.0968 26.1266,-44.3365 26.5358,-43.6053 0.3723,0.6652 5.6593,15.6142 11.749,33.2201 l 11.0722,32.0107 -23.8881,41.3545 -23.888,41.3546 -30.8194,0.2533 c -16.9506,0.1393 -30.8193,0.046 -30.8193,-0.2082 z M 338.14792,1617.1489 c -23.1089,-23.1957 -40.7288,-41.833 -50.1458,-53.0412 -7.985,-9.504 -17.5725,-20.7194 -21.3054,-24.9232 -12.2596,-13.8057 -29.7833,-37.7753 -47.1735,-64.5257 -8.9225,-13.7249 -13.0306,-19.6612 -20.1461,-29.1111 -15.2706,-20.2807 -34.852,-53.9658 -48.7422,-83.8496 -1.6795,-3.6133 -6.96,-14.6293 -11.7346,-24.48 -15.4125,-31.7988 -28.6378,-60.0004 -28.6378,-61.0673 0,-0.1829 -1.6887,-3.9538 -3.7527,-8.3798 -25.4265,-54.5247 -49.774305,-147.9871 -60.475505,-232.1432 -2.6745,-21.0328 -3.3508,-27.2811 -5.8183,-53.76006 -3.3494,-35.94133 -3.6671,-117.52132 -0.6132,-157.44 6.0604,-79.21764 22.5608,-162.60128 44.738205,-226.07999 2.2135,-6.336 4.5901,-13.248 5.2813,-15.36 11.0144,-33.65764 45.5838,-101.12008 69.1158,-134.88 1.6561,-2.376 6.1721,-8.856 10.0355,-14.4 6.518,-9.35332 12.0448,-16.67923 27.7679,-36.80684 17.3856,-22.25571 44.9049,-50.67314 60.8657,-62.85206 14.9936,-11.44091 24.1423,-16.28993 48.4772,-25.69397 22.3753,-8.64677 49.3501,7.52456 51.6302,30.95215 2.0431,20.9927 -9.8686,63.83837 -37.9882,136.64072 -0.9178,2.376 -3.3845,8.856 -5.4817,14.4 -2.0971,5.544 -7.6034,20.016 -12.2361,32.16 -9.8372,25.78722 -7.9862,20.24089 -17.7817,53.28 -4.3049,14.52 -8.8536,29.856 -10.1081,34.08 -5.7129,19.23509 -17.421,66.03941 -23.9829,95.87335 -17.652,80.2561 -28.6545,162.40254 -31.89,238.09494 -1.091,25.523 -0.7318,95.14936 0.6023,116.75176 3.3894,54.8837 10.0691,107.6451 18.8993,149.28 1.3438,6.336 3.9078,18.432 5.6977,26.8799 5.4438,25.6924 13.017,51.9448 19.7784,68.5611 0.5195,1.2766 2.8955,7.7566 5.28,14.4 7.2529,20.2068 10.9217,29.9605 14.2933,37.9989 1.7717,4.224 5.6668,13.512 8.6557,20.64 2.9889,7.128 6.5241,15.336 7.856,18.24 5.3619,11.6911 25.53,52.0163 30.9685,61.92 3.1895,5.808 8.6366,16.1269 12.1047,22.931 3.4682,6.8041 9.4457,17.6041 13.2833,24 3.8377,6.3959 8.6585,14.869 10.7131,18.829 8.9499,17.2506 31.1144,47.8442 54.7329,75.5478 2.4074,2.8238 3.2557,4.5893 2.8378,5.9061 -0.4912,1.5475 -47.4139,46.1699 -49.3675,46.9473 -0.3333,0.1326 -16.6384,-15.8514 -36.2335,-35.52 z m 1272.80848,-6.2394 c -6.4824,-18.877 -11.7744,-34.6458 -11.76,-35.0418 0.014,-0.396 36.9621,-0.72 82.1061,-0.72 65.0319,0 82.0769,0.2492 82.065,1.2 -0.01,0.66 -5.9619,16.32 -13.2303,34.8 l -13.2153,33.6 -57.0897,0.2418 -57.0897,0.2417 z M 447.03882,1566.2036 c -4.4265,-4.8488 -9.8219,-10.9759 -11.9898,-13.6159 -5.4952,-6.6919 -45.412,-69.6735 -48.9789,-77.28 -1.6093,-3.432 -4.9044,-10.56 -7.3224,-15.84 -4.6299,-10.1098 -19.4012,-39.5167 -36.4071,-72.48 -12.9009,-25.0063 -31.8295,-71.8664 -36.7307,-90.9318 -14.2879,-55.5781 -29.3523,-134.4382 -36.9118,-193.2281 -4.9704,-38.6546 -6.8887,-58.1708 -8.634,-87.84 -0.5591,-9.504 -1.2235,-20.0881 -1.4765,-23.52006 -2.0623,-27.98028 -1.3461,-88.57341 1.4922,-126.24 2.7424,-36.39316 11.7195,-102.4008 16.2511,-119.49256 0.494,-1.86309 2.0206,-8.57144 3.3925,-14.90744 7.6935,-35.53213 24.541,-97.57304 33.2383,-122.39999 8.9373,-25.51191 22.5156,-56.42153 30.9962,-70.56 0.6335,-1.056 4.3324,-8.832 8.2198,-17.28 4.8922,-10.63146 9.6012,-19.01573 15.2964,-27.23511 12.1733,-17.56836 18.1501,-22.09364 29.5632,-22.38328 5.7467,-0.14584 7.295,0.23717 13.2786,3.28476 18.6853,9.51683 30.4407,36.86561 39.8461,92.70144 2.5534,15.15806 2.8049,18.44289 2.3299,30.43219 -0.2929,7.392 -1.3702,41.304 -2.3942,75.36 -2.515,83.64795 -2.5577,84.48283 -5.7275,111.83999 -1.5294,13.2 -3.0499,27.24 -3.3788,31.2 -0.329,3.96 -0.9928,10.44 -1.4752,14.4 -0.7581,6.22239 -1.4543,14.84712 -4.3008,53.28 -0.2737,3.696 -1.1357,18.6 -1.9155,33.12 -0.7798,14.52 -2.2709,34.608 -3.3134,44.64 -4.117,39.61726 -4.8665,48.16746 -6.8998,78.72006 -2.851,42.8377 -3.1169,119.338 -0.5405,155.52 2.1898,30.7547 6.3135,63.6566 11.8515,94.5599 2.4127,13.464 5.1906,30.096 6.1731,36.96 3.2642,22.8059 3.3823,23.394 13.5996,67.68 2.1317,9.24 4.6343,19.176 5.5612,22.08 2.8612,8.9643 6.657,21.4111 7.7581,25.44 0.5773,2.112 1.5962,4.92 2.2644,6.24 0.6682,1.32 2.5682,6.504 4.2223,11.52 3.3476,10.1514 17.5275,37.455 27.2099,52.3929 3.4484,5.32 6.7456,10.5619 7.3271,11.6485 0.9441,1.7641 0.01,3.0009 -8.7568,11.5532 -5.3978,5.2677 -13.4861,12.7606 -17.9741,16.651 -4.488,3.8904 -9.888,8.6487 -12,10.574 -2.112,1.9254 -6.2825,5.4698 -9.2678,7.8765 l -5.4278,4.3758 z m 78.8846,-68.0526 c -1.7154,-5.4358 -3.4661,-10.7473 -3.8904,-11.8033 -6.4155,-15.9678 -24.0983,-78.581 -32.9407,-116.64 -12.4493,-53.584 -18.0208,-109.1752 -18.0883,-180.4799 -0.05,-52.5099 2.7509,-89.7761 9.8838,-131.52 5.5952,-32.745 17.8444,-76.46588 24.0108,-85.70109 4.9694,-7.44261 10.7317,-12.9028 14.8039,-14.0276 20.676,-5.71102 40.7623,8.98439 51.3226,37.54829 7.661,20.7219 15.1955,60.6761 18.3336,97.2204 2.7409,31.919 3.55,49.3852 2.7794,60 -1.7312,23.845 -3.0234,36.4681 -4.8502,47.3805 -1.0479,6.2593 -2.9748,21.5953 -4.282,34.0799 -1.3072,12.4847 -3.4294,30.6915 -4.716,40.4595 -1.2866,9.768 -2.8184,22.944 -3.4039,29.28 -2.3085,24.9805 -4.4835,128.5583 -3.1716,151.041 l 0.803,13.761 -20.9236,19.359 c -11.508,10.6474 -21.2899,19.4865 -21.7376,19.6423 -0.4476,0.1559 -2.2174,-4.1641 -3.9328,-9.6 z m 351.6275,-638.94272 c -20.0167,-17.32523 -44.5404,-51.37395 -61.6051,-85.53239 -11.3508,-22.72095 -14.2842,-30.66037 -18.4037,-49.81013 -6.9599,-32.35354 -7.3938,-59.64227 -1.3616,-85.62399 3.5079,-15.10887 5.5445,-21.04625 13.1335,-38.28805 11.3368,-25.75664 28.5365,-56.19919 43.5085,-77.00763 8.9945,-12.50086 12.6013,-17.20068 20.5089,-26.72422 25.1628,-30.30484 50.2809,-52.93271 76.8475,-69.22875 12.75,-7.82089 14.01378,-8.46692 31.22928,-15.96382 16.5844,-7.22204 15.3983,-7.33267 23.6943,2.20993 6.9389,7.98149 18.1489,31.56771 27.5227,57.90852 7.381,20.74115 8.9981,26.99963 11.162,43.2 2.8671,21.46422 5.7006,77.04816 5.1852,101.71635 l -0.3099,14.83635 -6.1233,4.9393 c -4.2164,3.40114 -9.2986,6.21988 -16.32,9.05148 -5.6082,2.26171 -13.0047,5.63022 -16.4367,7.48559 -3.432,1.85537 -10.344,5.52134 -15.36,8.14662 -15.9722,8.35953 -18.4292,9.84823 -33.31418,20.18558 -23.1652,16.08778 -28.0325,19.96398 -37.7454,30.05927 -17.8253,18.52701 -28.0697,35.24056 -35.4575,57.84814 -5.3934,16.50458 -7.1731,28.38665 -7.209,48.13131 -0.038,20.64103 1.517,28.64875 8.0922,41.68459 2.9031,5.75552 3.5784,7.91471 2.7773,8.88 -0.5822,0.70148 -1.5456,1.26665 -2.141,1.25595 -0.5953,-0.0107 -5.9386,-4.22271 -11.874,-9.36 z m 83.9605,-73.23039 c -3.5811,-0.41663 -11.3571,-2.11148 -17.28,-3.76634 -5.9229,-1.65486 -14.0089,-3.89719 -17.9689,-4.98297 -12.4026,-3.40061 -12.0221,-3.22002 -11.7517,-5.57743 0.4278,-3.73014 8.0445,-18.32074 15.0466,-28.82341 8.6682,-13.00176 25.9459,-30.50748 41.30518,-41.8505 11.0391,-8.15248 31.3098,-20.93372 41.303,-26.04263 5.6407,-2.88378 38.8352,-12.94029 40.5769,-12.29306 3.3902,1.25985 -0.6548,90.55467 -4.5683,100.84807 -1.6395,4.31219 -7.0109,8.48282 -17.5643,13.6378 -17.0773,8.34169 -43.9198,11.77982 -69.09848,8.85047 z m 586.98038,-417.40476 -49.2907,-32.32126 -10.5567,-27.35206 c -5.8062,-15.04363 -11.386,-29.70096 -12.3995,-32.57184 -2.1214,-6.00908 -12.2025,-25.37184 -16.5253,-31.74022 -19.308,-28.44414 -34.083,-47.01625 -51.9336,-65.27999 -8.2028,-8.39268 -36.2783,-38.83585 -56.8935,-61.69139 -2.7335,-3.03054 -6.3717,-7.96001 -8.0849,-10.95437 -2.8175,-4.92455 -3.1562,-6.37253 -3.5473,-15.167558 -0.3772,-8.48106 -0.1775,-10.22301 1.5631,-13.63495 3.1931,-6.259 17.9133,-15.64017 24.5761,-15.66235 1.5494,-0.005 5.2214,0.61808 8.16,1.38497 2.9386,0.7669 7.4308,1.66274 9.9826,1.99076 6.559,0.84314 31.1973,13.58785 47.9466,24.80138 23.4742,15.715838 54.6418,40.795678 68.6781,55.263618 10.4003,10.72009 29.6756,33.92459 37.7669,45.46558 7.0569,10.06567 16.1261,24.88096 22.4562,36.6843 6.5016,12.12306 27.1042,63.86009 30.1659,75.75262 4.1541,16.135 7.8473,55.03622 7.4964,78.96071 l -0.2697,18.39332 z m -144.1493,-81.89897 c -32.6865,-11.96834 -58.1295,-18.83439 -109.92,-29.66301 -16.9927,-3.55291 -21.7517,-4.78577 -23.3867,-6.05845 -0.7187,-0.55942 -9.1162,-10.53638 -18.6612,-22.17103 -33.756,-41.1463 -74.0699,-77.46505 -116.8321,-105.25408 -31.6476,-20.56619 -39.3091,-26.71014 -50.99,-40.890368 -5.8888,-7.14883 -10.4243,-15.50251 -10.4406,-19.23003 -0.021,-4.69432 2.8742,-9.36527 8.1927,-13.21943 10.7326,-7.77756 25.7055,-14.48876 45.0779,-20.20489 10.3198,-3.04501 12.7702,-3.41049 23.52,-3.50797 13.5311,-0.12269 31.9523,2.13063 41.2579,5.04676 3.4199,1.07169 12.6444,5.27798 20.4989,9.34732 12.1885,6.31472 17.1851,9.68479 34.102,23.00092 26.501,20.86016 45.8626,38.822978 57.5354,53.378738 12.6224,15.73993 70.7844,96.09928 79.2123,109.44348 7.2862,11.53658 23.6391,46.06622 25.5245,53.89563 0.6357,2.64 1.3814,5.556 1.6571,6.48 0.6125,2.05273 0.276,2.03187 -6.3481,-0.39359 z m -313.44,-14.17355 c -8.7364,-2.65187 -37.7201,-14.52593 -51.84,-21.23787 -16.1866,-7.69433 -47.1635,-31.12924 -62.9373,-47.6139 -10.0921,-10.54694 -19.50698,-24.58384 -24.10788,-35.94335 -3.4404,-8.49429 -4.1079,-11.26615 -4.4389,-18.43259 -0.3571,-7.73168 -0.1672,-8.8743 2.2774,-13.70592 6.9804,-13.79669 18.94148,-21.55477 38.64478,-25.06553 18.1571,-3.23526 45.5004,1.26938 68.3219,11.25562 3.432,1.50178 9.6137,4.04628 13.7371,5.65445 4.1235,1.60816 15.1395,7.53941 24.48,13.18055 38.9516,23.52443 49.0276,30.59503 66.4229,46.61051 13.6342,12.55278 67.7567,66.77405 67.1569,67.27948 -0.2403,0.20252 -16.7623,2.82586 -36.7156,5.82964 -19.9533,3.00379 -46.9533,7.60335 -60,10.22126 -13.0467,2.61791 -25.6653,4.72168 -28.0413,4.67504 -2.376,-0.0466 -8.208,-1.26496 -12.96,-2.70739 z"
       id="path1" /></g></svg>
