<?xml version="1.0" encoding="UTF-8" standalone="no"?>
<!-- Created with Inkscape (http://www.inkscape.org/) -->

<svg
   version="1.1"
   id="svg1"
   width="1966.08"
   height="1966.08"
   viewBox="0 0 1966.08 1966.08"
   sodipodi:docname="quaccatoo.svg"
   inkscape:version="1.4.2 (ebf0e940d0, 2025-05-08)"
   xmlns:inkscape="http://www.inkscape.org/namespaces/inkscape"
   xmlns:sodipodi="http://sodipodi.sourceforge.net/DTD/sodipodi-0.dtd"
   xmlns="http://www.w3.org/2000/svg"
   xmlns:svg="http://www.w3.org/2000/svg">
  <sodipodi:namedview
     id="namedview1"
     pagecolor="#ffffff"
     bordercolor="#000000"
     borderopacity="0.25"
     inkscape:showpageshadow="2"
     inkscape:pageopacity="0.0"
     inkscape:pagecheckerboard="0"
     inkscape:deskcolor="#d1d1d1"
     inkscape:zoom="0.59661867"
     inkscape:cx="984.71608"
     inkscape:cy="983.03997"
     inkscape:window-width="1920"
     inkscape:window-height="1140"
     inkscape:window-x="0"
     inkscape:window-y="0"
     inkscape:window-maximized="1"
     inkscape:current-layer="g1" />
  <defs
     id="defs1" />
  <g
     id="g1">
    <path
       style="fill:#6cabe9;fill-opacity:1"
       d="m 1600.7327,1893.36 c 0.2981,-0.924 6.5463,-15.072 13.8849,-31.44 l 13.3429,-29.76 h 54.976 54.9761 l 14.7237,31.0944 c 8.098,17.102 14.7237,31.25 14.7237,31.44 0,0.1901 -37.6132,0.3456 -83.5847,0.3456 -79.171,0 -83.5561,-0.089 -83.0426,-1.68 z m -45.0527,-60.7728 c -18.48,-32.147 -37.7506,-65.4822 -42.8235,-74.0782 l -9.2235,-15.629 10.1835,-0.6094 c 14.0981,-0.8436 54.7663,-0.3197 55.7608,0.7183 1.8307,1.9108 48.0227,82.777 48.0227,84.0711 0,1.126 -27.1911,62.8557 -28.0725,63.7306 -0.1361,0.1351 -15.3675,-26.0564 -33.8475,-58.2034 z m 218.1589,49.8012 c -1.3004,-2.8097 -7.6389,-16.2422 -14.0856,-29.8502 -6.4466,-13.6079 -11.5844,-25.5333 -11.4173,-26.5008 0.1672,-0.9674 10.888,-20.1659 23.824,-42.6632 l 23.52,-40.9042 32.4404,-0.035 32.4405,-0.035 -2.6348,4.56 c -1.4491,2.508 -6.5758,11.256 -11.3926,19.44 -4.8169,8.184 -22.0782,37.992 -38.3586,66.24 -16.2804,28.248 -30.1341,52.1467 -30.7861,53.1084 -1.0661,1.5724 -1.4235,1.2341 -3.5499,-3.36 z m -800.39892,-21.9853 c -15.46053,-0.7165 -24.17433,-1.3077 -56.08147,-3.8049 -27.15341,-2.1251 -84.06563,-10.1797 -114.31853,-16.1791 -31.31748,-6.2104 -76.29986,-16.8521 -96.48,-22.8246 -43.37534,-12.8374 -113.27684,-37.5049 -151.67026,-53.5227 -15.06845,-6.2867 -79.04234,-40.3196 -91.68973,-48.7773 -10.43682,-6.9794 -34.70091,-23.9948 -37.61741,-26.3796 l -2.09741,-1.7149 8.81741,-9.6523 c 4.84958,-5.3088 12.27341,-13.4845 16.49741,-18.1682 4.224,-4.6837 11.136,-11.8367 15.36,-15.8955 14.33657,-13.776 77.70165,-71.2372 89.28,-80.9616 47.02818,-39.4978 92.27391,-95.0916 139.56328,-171.4824 8.00291,-12.9279 13.78141,-24.0062 33.29908,-63.84 13.09882,-26.7335 19.32629,-36.9185 43.73347,-71.5259 5.02936,-7.1312 11.08148,-15.5552 13.44916,-18.72 27.72307,-37.0564 26.1472,-35.0094 44.995,-58.4481 16.0194,-19.9215 32.52825,-38.8765 51.97346,-59.6745 17.72587,-18.9591 25.15635,-26.0135 36.8569,-34.9915 3.78462,-2.904 9.64604,-7.4126 13.02538,-10.0192 19.50352,-15.0432 62.06757,-44.0456 81.50428,-55.5355 6.2727,-3.7081 18.7108,-9.1203 39.84,-17.3357 33.4185,-12.99365 83.9737,-30.7135 90.4523,-31.70394 6.8611,-1.04893 24.4586,-8.31842 30.0277,-12.40438 8.8891,-6.52187 19.4244,-17.97081 23.2212,-25.235 4.6961,-8.98499 6.4429,-15.41043 7.1587,-26.33338 0.7325,-11.17654 -0.3189,-14.07219 -9.1447,-25.18499 -4.7762,-6.01397 -9.5367,-10.16459 -24.9487,-21.75283 -10.4755,-7.87641 -21.1614,-15.41982 -23.7464,-16.76313 -2.5851,-1.34331 -13.1241,-7.36297 -23.4201,-13.37703 -16.4133,-9.58723 -20.8633,-12.75715 -36.1131,-25.72479 -17.3612,-14.76301 -17.3942,-14.79854 -17.9568,-19.36703 -0.606,-4.92085 3.5402,-30.92725 8.9892,-56.38312 2.7143,-12.68019 3.0272,-15.978 3.5132,-37.02624 1.2693,-54.97935 -4.8165,-155.92212 -12.1215,-201.05375 -3.3427,-20.65193 -6.6615,-29.58009 -26.5857,-71.52 -8.8977,-18.72948 -13.2447,-27.4799 -21.1839,-42.6427 -3.3692,-6.43478 -2.5044,-16.30122 2.0263,-23.1173 3.3066,-4.97456 24.5154,-17.27781 39.1839,-22.73057 18.5423,-6.89281 73.3925,-23.89835 93.8484,-29.09639 37.2466,-9.46473 72.201,-13.2612 105.12,-11.4173 24.1263,1.35139 45.3578,4.63406 65.28,10.09317 12.2606,3.35969 11.1208,2.90105 77.7306,31.27696 54.3529,23.15442 62.2936,26.82016 78.72,36.34036 22.9818,13.3194 94.4123,62.84108 118.3982,82.0836 16.0254,12.85623 20.0396,16.76158 45.6918,44.45233 15.4676,16.69681 29.4148,31.86984 30.9938,33.71784 10.9063,12.76454 27.5902,35.30617 39.4346,53.28 7.6546,11.616 20.1027,30.408 27.6624,41.76 19.9712,29.9897 38.1597,63.75382 50.1633,93.11999 5.2876,12.936 10.2759,26.37653 11.0851,29.86784 1.3561,5.85111 10.9148,35.22534 17.7714,54.61216 1.5873,4.488 3.8148,12.48 4.9501,17.76 1.1353,5.28 3.3021,13.488 4.8152,18.24 1.5131,4.752 3.4337,12.89362 4.268,18.09249 4.2124,26.24822 6.6648,34.89571 22.7749,80.30751 20.9993,59.19395 25.6911,72.94472 29.5992,86.74882 3.5533,12.5508 3.8024,14.3004 4.3733,30.72 0.3374,9.7022 0.1119,26.7623 -0.5093,38.5312 -0.986,18.6828 -1.5435,23.0033 -4.8306,37.44 -2.0437,8.976 -4.0077,17.832 -4.3643,19.68 -0.3566,1.848 -2.7561,11.136 -5.3321,20.64 -2.5761,9.504 -6.8696,25.92 -9.5412,36.48 -6.7058,26.5058 -9.4885,34.473 -19.9501,57.12 -5.0001,10.824 -11.0201,24.432 -13.3778,30.24 -7.2491,17.8575 -39.8614,82.4304 -54.5449,108 -21.6678,37.7316 -60.0112,89.1177 -91.5119,122.64 l -11.0508,11.76 h -51.0666 -51.0666 l -12.2873,21.36 c -6.7581,11.748 -14.7259,25.248 -17.7063,30 -2.9804,4.752 -24.1824,41.2422 -47.1155,81.0893 -32.8289,57.0413 -42.6623,73.3911 -46.2371,76.8775 -5.6473,5.5078 -18.2953,13.0199 -44.8995,26.6675 -24.1252,12.3758 -44.1655,21.2406 -73.44,32.4858 -41.1414,15.8037 -66.425,24.6315 -83.28,29.0774 -4.092,1.0794 -10.68,2.8265 -14.64,3.8825 -3.96,1.056 -10.332,2.7534 -14.16,3.7721 -12.7521,3.3936 -50.3832,10.6237 -70.0733,13.4634 -23.4203,3.3777 -53.5773,6.431 -81.3667,8.2383 -14.2697,0.928 -80.4769,1.1777 -97.92002,0.3693 z m 632.25192,-77.2851 c -21.5925,-37.3755 -27.4519,-47.9534 -27.4519,-49.5585 0,-1.2668 43.3434,-76.0337 44.5364,-76.8248 0.585,-0.388 27.4156,-0.693 59.6236,-0.6779 l 58.56,0.027 22.9207,39.8711 c 19.9743,34.7459 22.7896,40.1394 21.901,41.9579 -0.5608,1.1477 -11.5295,20.2308 -24.3749,42.4068 l -23.3553,40.32 -55.198,0.2477 -55.1981,0.2477 z m 189.7064,-54.398 c -1.0331,-1.716 -11.0797,-19.104 -22.3259,-38.64 -11.2461,-19.536 -21.2361,-36.5503 -22.2,-37.8095 -0.9638,-1.2592 -1.7524,-2.8957 -1.7524,-3.6366 0,-2.5917 25.2798,-65.658 26.0187,-64.9095 0.8668,0.8781 85.3413,147.0771 85.3413,147.6992 0,0.229 -14.2208,0.4164 -31.6017,0.4164 h -31.6017 z m -290.1183,1.7251 c 0,-0.2539 7.6947,-13.7599 17.0994,-30.0133 9.4047,-16.2535 28.736,-49.7184 42.9584,-74.3664 15.6355,-27.0968 26.1266,-44.3365 26.5358,-43.6053 0.3723,0.6652 5.6593,15.6142 11.749,33.2201 l 11.0722,32.0107 -23.8881,41.3545 -23.888,41.3546 -30.8194,0.2533 c -16.9506,0.1393 -30.8193,0.046 -30.8193,-0.2082 z M 340.20537,1615.4412 c -23.10892,-23.1957 -40.72876,-41.833 -50.14573,-53.0412 -7.98507,-9.504 -17.57253,-20.7194 -21.30546,-24.9232 -12.25959,-13.8057 -29.78329,-37.7753 -47.17348,-64.5257 -8.92247,-13.7249 -13.03059,-19.6612 -20.1461,-29.1111 -15.27065,-20.2807 -34.85195,-53.9658 -48.7422,-83.8496 -1.67948,-3.6133 -6.96004,-14.6293 -11.73459,-24.48 C 125.54528,1303.7116 112.32,1275.51 112.32,1274.4431 c 0,-0.1829 -1.68871,-3.9538 -3.75268,-8.3798 -25.42648,-54.5248 -49.774327,-147.9872 -60.475554,-232.1433 -2.67451,-21.0328 -3.350754,-27.2811 -5.818301,-53.76002 -3.349345,-35.94133 -3.667077,-117.52132 -0.613186,-157.44 6.060372,-79.21764 22.560867,-162.60128 44.738173,-226.07999 2.213583,-6.336 4.590181,-13.248 5.281328,-15.36 11.01438,-33.65764 45.58377,-101.12008 69.11578,-134.88 1.65617,-2.376 6.17217,-8.856 10.03556,-14.4 6.51795,-9.35332 12.04479,-16.67923 27.76792,-36.80684 17.38553,-22.25571 44.90485,-50.67314 60.86565,-62.85206 14.99363,-11.44091 24.14234,-16.28993 48.47722,-25.69397 22.37527,-8.64677 49.35007,7.52456 51.63017,30.95215 2.04312,20.9927 -9.86863,63.83837 -37.98822,136.64072 -0.91772,2.376 -3.38445,8.856 -5.48162,14.4 -2.09717,5.544 -7.60341,20.016 -12.23609,32.16 -9.83727,25.78722 -7.98624,20.24089 -17.78174,53.28 -4.30493,14.52 -8.85357,29.856 -10.10811,34.08 -5.71285,19.23509 -17.42104,66.03941 -23.9829,95.87335 -17.652,80.2561 -28.65454,162.40254 -31.89,238.09494 -1.09098,25.523 -0.7318,95.14932 0.60227,116.75172 3.3894,54.8837 10.06916,107.6451 18.89935,149.28 1.34378,6.336 3.90776,18.432 5.69773,26.88 5.44374,25.6924 13.01699,51.9448 19.77839,68.5611 0.51946,1.2766 2.89546,7.7566 5.27999,14.4 7.25287,20.2068 10.92171,29.9605 14.29331,37.9989 1.7717,4.224 5.66675,13.512 8.65568,20.64 2.98892,7.128 6.5241,15.336 7.85595,18.24 5.36188,11.6911 25.53002,52.0163 30.96856,61.92 3.18942,5.808 8.63653,16.1269 12.10469,22.931 3.46816,6.8041 9.44564,17.6041 13.28329,24 3.83764,6.3959 8.65852,14.869 10.71304,18.829 8.94998,17.2506 31.11444,47.8442 54.73292,75.5478 2.40741,2.8238 3.25571,4.5893 2.83778,5.9061 -0.49117,1.5475 -47.41383,46.1699 -49.36742,46.9473 -0.33337,0.1326 -16.63848,-15.8514 -36.23356,-35.52 z m 1272.80853,-6.2394 c -6.4824,-18.877 -11.7744,-34.6458 -11.76,-35.0418 0.014,-0.396 36.9621,-0.72 82.1061,-0.72 65.0319,0 82.0769,0.2492 82.065,1.2 -0.01,0.66 -5.9619,16.32 -13.2303,34.8 l -13.2153,33.6 -57.0897,0.2418 -57.0897,0.2417 z M 449.0963,1564.4959 c -4.42646,-4.8488 -9.82186,-10.9759 -11.98979,-13.6159 -5.49524,-6.6919 -45.41202,-69.6735 -48.97887,-77.28 -1.60933,-3.432 -4.90445,-10.56 -7.32248,-15.84 -4.62989,-10.1098 -19.40113,-39.5167 -36.4071,-72.48 -12.90089,-25.0063 -31.82941,-71.8664 -36.7307,-90.9318 -14.2879,-55.5781 -29.3523,-134.4383 -36.91178,-193.2282 -4.97037,-38.6546 -6.88867,-58.1708 -8.63402,-87.84 -0.55909,-9.504 -1.2235,-20.08802 -1.47646,-23.52002 -2.06231,-27.98028 -1.34606,-88.57341 1.49224,-126.24 2.74235,-36.39316 11.71944,-102.4008 16.25108,-119.49256 0.49398,-1.86309 2.02059,-8.57144 3.39247,-14.90744 7.69349,-35.53213 24.54102,-97.57304 33.23835,-122.39999 8.93728,-25.51191 22.51553,-56.42153 30.99621,-70.56 0.63342,-1.056 4.33232,-8.832 8.21976,-17.28 4.89219,-10.63146 9.60117,-19.01573 15.29643,-27.23511 12.17325,-17.56836 18.1501,-22.09364 29.56314,-22.38328 5.74669,-0.14584 7.295,0.23717 13.27864,3.28476 18.68531,9.51683 30.44071,36.86561 39.84612,92.70144 2.55333,15.15806 2.80482,18.44289 2.32985,30.43219 -0.29284,7.392 -1.37021,41.304 -2.39415,75.36 -2.515,83.64795 -2.55776,84.48283 -5.72749,111.83999 -1.52942,13.2 -3.0499,27.24 -3.37886,31.2 -0.32895,3.96 -0.99281,10.44 -1.47523,14.4 -0.75804,6.22239 -1.45422,14.84712 -4.30073,53.28 -0.27374,3.696 -1.13575,18.6 -1.91556,33.12 -0.77982,14.52 -2.27083,34.608 -3.31336,44.64 -4.11704,39.61722 -4.86647,48.16742 -6.89982,78.72002 -2.85096,42.8377 -3.11685,119.338 -0.54054,155.52 2.18987,30.7547 6.31359,63.6567 11.85151,94.56 2.41278,13.464 5.19068,30.096 6.17312,36.96 3.26418,22.8059 3.38237,23.394 13.59959,67.68 2.13176,9.24 4.63431,19.176 5.56122,22.08 2.86126,8.9643 6.65705,21.4111 7.75816,25.44 0.57722,2.112 1.59618,4.92 2.26435,6.24 0.66816,1.32 2.5682,6.504 4.22231,11.52 3.34758,10.1514 17.52754,37.455 27.20992,52.3929 3.44835,5.32 6.74553,10.5619 7.32706,11.6485 0.94414,1.7641 0.007,3.0009 -8.75679,11.5532 -5.39776,5.2677 -13.48611,12.7606 -17.97411,16.651 -4.488,3.8904 -9.888,8.6487 -12,10.574 -2.112,1.9254 -6.28251,5.4698 -9.2678,7.8765 l -5.4278,4.3758 z m 78.88459,-68.0526 c -1.71542,-5.4358 -3.46608,-10.7473 -3.89036,-11.8033 -6.41555,-15.9678 -24.09837,-78.581 -32.94071,-116.64 -12.44931,-53.584 -18.02084,-109.1752 -18.08829,-180.48 -0.0497,-52.5099 2.75089,-89.7761 9.88378,-131.52 5.59522,-32.745 17.84442,-76.46584 24.01074,-85.70105 4.9694,-7.44261 10.73178,-12.9028 14.80394,-14.0276 20.67597,-5.71102 40.76228,8.98439 51.32257,37.54828 7.66105,20.72187 15.19553,60.67607 18.33365,97.22037 2.74093,31.919 3.55001,49.3852 2.77936,60 -1.73121,23.845 -3.0234,36.4681 -4.8502,47.3805 -1.04785,6.2593 -2.97473,21.5953 -4.28195,34.08 -1.30722,12.4847 -3.42944,30.6915 -4.71604,40.4595 -1.2866,9.768 -2.81834,22.944 -3.40387,29.28 -2.30853,24.9805 -4.48348,128.5583 -3.1716,151.041 l 0.80297,13.761 -20.92362,19.359 c -11.50798,10.6474 -21.28987,19.4865 -21.73752,19.6423 -0.44765,0.1559 -2.21743,-4.1641 -3.93285,-9.6 z M 879.6084,857.50052 c -20.01668,-17.32523 -44.54041,-51.37395 -61.60507,-85.53239 -11.35079,-22.72095 -14.28422,-30.66037 -18.40371,-49.81013 -6.95988,-32.35354 -7.39382,-59.64227 -1.36157,-85.62399 3.50787,-15.10887 5.54449,-21.04625 13.13346,-38.28805 11.33677,-25.75664 28.53648,-56.19919 43.50847,-77.00763 8.99456,-12.50086 12.60135,-17.20068 20.50894,-26.72422 25.16274,-30.30484 50.28083,-52.93271 76.84747,-69.22875 12.74999,-7.82089 14.01381,-8.46692 31.22932,-15.96382 16.58439,-7.22204 15.39827,-7.33267 23.69429,2.20993 6.9389,7.98149 18.1489,31.56771 27.5227,57.90852 7.381,20.74115 8.9981,26.99963 11.162,43.2 2.8671,21.46422 5.7006,77.04816 5.1852,101.71635 l -0.3099,14.83635 -6.1233,4.9393 c -4.2164,3.40114 -9.2986,6.21988 -16.32,9.05148 -5.6082,2.26171 -13.0047,5.63022 -16.4367,7.48559 -3.432,1.85537 -10.344,5.52134 -15.36002,8.14662 -15.97221,8.35953 -18.42914,9.84823 -33.31417,20.18558 -23.16521,16.08778 -28.03256,19.96398 -37.74546,30.05927 -17.82524,18.52701 -28.06965,35.24056 -35.45746,57.84814 -5.39344,16.50458 -7.17312,28.38665 -7.20904,48.13131 -0.0376,20.64103 1.517,28.64875 8.09228,41.68459 2.90308,5.75552 3.57837,7.91471 2.77725,8.88 -0.58217,0.70148 -1.5456,1.26665 -2.14095,1.25595 -0.59535,-0.0107 -5.93866,-4.22271 -11.87403,-9.36 z m 83.96052,-73.23039 c -3.58109,-0.41663 -11.35709,-2.11148 -17.28,-3.76634 -5.92292,-1.65486 -14.00894,-3.89719 -17.96894,-4.98297 -12.40258,-3.40061 -12.02207,-3.22002 -11.75169,-5.57743 0.42783,-3.73014 8.04453,-18.32074 15.04662,-28.82341 8.66823,-13.00176 25.94584,-30.50748 41.30516,-41.8505 11.03908,-8.15248 31.30983,-20.93372 41.30303,-26.04263 5.6407,-2.88378 38.8352,-12.94029 40.5769,-12.29306 3.3902,1.25985 -0.6548,90.55467 -4.5683,100.84807 -1.6395,4.31219 -7.0109,8.48282 -17.5643,13.6378 -17.0773,8.34169 -43.91984,11.77982 -69.09848,8.85047 z m 586.98038,-417.40476 -49.2907,-32.32126 -10.5567,-27.35206 c -5.8062,-15.04363 -11.386,-29.70096 -12.3995,-32.57184 -2.1214,-6.00908 -12.2025,-25.37184 -16.5253,-31.74022 -19.308,-28.44414 -34.083,-47.01625 -51.9336,-65.27999 -8.2028,-8.39268 -36.2783,-38.83585 -56.8935,-61.69139 -2.7335,-3.03054 -6.3717,-7.96001 -8.0849,-10.95437 -2.8175,-4.92455 -3.1562,-6.37253 -3.5473,-15.16756 -0.3772,-8.481063 -0.1775,-10.223012 1.5631,-13.634948 3.1931,-6.258999 17.9133,-15.640174 24.5761,-15.662355 1.5494,-0.0052 5.2214,0.618081 8.16,1.384975 2.9386,0.766895 7.4308,1.662736 9.9826,1.990759 6.559,0.843137 31.1973,13.587849 47.9466,24.801376 23.4742,15.715843 54.6418,40.795683 68.6781,55.263623 10.4003,10.72009 29.6756,33.92459 37.7669,45.46558 7.0569,10.06567 16.1261,24.88096 22.4562,36.6843 6.5016,12.12306 27.1042,63.86009 30.1659,75.75262 4.1541,16.135 7.8473,55.03622 7.4964,78.96071 l -0.2697,18.39332 z M 1406.4,284.9664 c -32.6865,-11.96834 -58.1295,-18.83439 -109.92,-29.66301 -16.9927,-3.55291 -21.7517,-4.78577 -23.3867,-6.05845 -0.7187,-0.55942 -9.1162,-10.53638 -18.6612,-22.17103 -33.756,-41.1463 -74.0699,-77.46505 -116.8321,-105.25408 -31.6476,-20.56619 -39.3091,-26.710143 -50.99,-40.890367 -5.8888,-7.148833 -10.4243,-15.502514 -10.4406,-19.230037 -0.021,-4.694318 2.8742,-9.365263 8.1927,-13.219427 10.7326,-7.777562 25.7055,-14.488762 45.0779,-20.204885 10.3198,-3.045018 12.7702,-3.410496 23.52,-3.507971 13.5311,-0.122695 31.9523,2.130624 41.2579,5.046758 3.4199,1.071693 12.6444,5.277984 20.4989,9.347315 12.1885,6.31472 17.1851,9.684795 34.102,23.000924 26.501,20.860158 45.8626,38.82298 57.5354,53.37874 12.6224,15.73993 70.7844,96.09928 79.2123,109.44348 7.2862,11.53658 23.6391,46.06622 25.5245,53.89563 0.6357,2.64 1.3814,5.556 1.6571,6.48 0.6125,2.05273 0.276,2.03187 -6.3481,-0.39359 z m -313.44,-14.17355 c -8.7364,-2.65187 -37.7201,-14.52593 -51.84,-21.23787 -16.1866,-7.69433 -47.16352,-31.12924 -62.93731,-47.6139 -10.09213,-10.54694 -19.50694,-24.58384 -24.10788,-35.94335 -3.44044,-8.49429 -4.10795,-11.26615 -4.43892,-18.43259 -0.35707,-7.73168 -0.16722,-8.8743 2.27736,-13.70592 6.98049,-13.79669 18.94152,-21.55477 38.6448,-25.06553 18.15715,-3.23526 45.50045,1.26938 68.32195,11.25562 3.432,1.50178 9.6137,4.04628 13.7371,5.65445 4.1235,1.60816 15.1395,7.53941 24.48,13.18055 38.9516,23.52443 49.0276,30.59503 66.4229,46.61051 13.6342,12.55278 67.7567,66.77405 67.1569,67.27948 -0.2403,0.20252 -16.7623,2.82586 -36.7156,5.82964 -19.9533,3.00379 -46.9533,7.60335 -60,10.22126 -13.0467,2.61791 -25.6653,4.72168 -28.0413,4.67504 -2.376,-0.0466 -8.208,-1.26496 -12.96,-2.70739 z"
       id="path1"
       sodipodi:nodetypes="sscccsssssscssssssssscccsssssssssssscssssssssssscssssssssssssssssssssssssssssssssssssssssssssssscccsssssssssssssssscssscccsssssssscsssssscccsssssssssssssssssssssssssssssssssssssssssssssssscscccssssssssssssssssssssssssssssssssssssssssssscsssssssssssssssscsssssssssssssssscsssssssssssssssssssssssccsscssssssssssssssccsssssscsssssssssssssssssssssssssss" />
  </g>
</svg>
